<svg xmlns="http://www.w3.org/2000/svg" viewBox="0 0 192 192" width="192" height="192" role="img" aria-label="FairyDiary app icon">
  <defs>
    <linearGradient id="bg" x1="0%" y1="0%" x2="100%" y2="100%">
      <stop offset="0%" stop-color="#ffeaf5"/>
      <stop offset="100%" stop-color="#f8cfe7"/>
    </linearGradient>
    <linearGradient id="bookBody" x1="0%" y1="0%" x2="100%" y2="100%">
      <stop offset="0%" stop-color="#fffdfa"/>
      <stop offset="100%" stop-color="#ffe8f4"/>
    </linearGradient>
    <linearGradient id="bookEdge" x1="0%" y1="0%" x2="100%" y2="100%">
      <stop offset="0%" stop-color="#ff86c2"/>
      <stop offset="100%" stop-color="#ef5da8"/>
    </linearGradient>
    <linearGradient id="heart" x1="0%" y1="0%" x2="100%" y2="100%">
      <stop offset="0%" stop-color="#ff7dbc"/>
      <stop offset="100%" stop-color="#f03f9b"/>
    </linearGradient>
  </defs>

  <rect x="6" y="6" width="180" height="180" rx="36" fill="url(#bg)"/>

  <g opacity="0.9">
    <path d="M38 58l5-8 5 8 9 3-9 3-5 8-5-8-9-3z" fill="#ffd45e"/>
    <path d="M140 43l4-6 4 6 6 2-6 2-4 6-4-6-6-2z" fill="#ffd45e"/>
    <path d="M156 60l4-5 4 5 6 2-6 2-4 5-4-5-6-2z" fill="#fff6d8"/>
  </g>

  <g transform="translate(2 2)">
    <rect x="62" y="56" width="80" height="96" rx="14" fill="#f58abe"/>
    <rect x="58" y="52" width="80" height="96" rx="14" fill="#ffb1d5"/>
    <rect x="54" y="48" width="80" height="96" rx="14" fill="url(#bookBody)" stroke="#ffd4ea" stroke-width="1.2"/>
    <path d="M54 48c-7 2-11 7-13 13v74c0 8 5 12 13 14v-101z" fill="url(#bookEdge)"/>

    <circle cx="84" cy="73" r="2.4" fill="#2a2230"/>
    <circle cx="112" cy="73" r="2.4" fill="#2a2230"/>
    <path d="M87 89c3 4 6 6 11 6 5 0 8-2 11-6" fill="none" stroke="#2a2230" stroke-width="2" stroke-linecap="round"/>
    <ellipse cx="75" cy="81" rx="4.3" ry="2.6" fill="#ffc89f"/>
    <ellipse cx="121" cy="81" rx="4.3" ry="2.6" fill="#ffc89f"/>

    <path d="M98 123c-4-6-12-5-14 2-1 5 2 10 7 12 2 1 5 3 7 4 2-1 5-3 7-4 5-2 8-7 7-12-2-7-10-8-14-2z" fill="url(#heart)"/>

    <path d="M48 132h12v15l-6 6-6-6z" fill="#ffd45e"/>
  </g>
</svg>