<svg xmlns="http://www.w3.org/2000/svg" viewBox="0 0 512 512" width="512" height="512" role="img" aria-label="FairyDiary app icon">
  <defs>
    <linearGradient id="bg" x1="0%" y1="0%" x2="100%" y2="100%">
      <stop offset="0%" stop-color="#ffeaf5"/>
      <stop offset="100%" stop-color="#f8cfe7"/>
    </linearGradient>
    <linearGradient id="bookBody" x1="0%" y1="0%" x2="100%" y2="100%">
      <stop offset="0%" stop-color="#fffdfa"/>
      <stop offset="100%" stop-color="#ffe8f4"/>
    </linearGradient>
    <linearGradient id="bookEdge" x1="0%" y1="0%" x2="100%" y2="100%">
      <stop offset="0%" stop-color="#ff86c2"/>
      <stop offset="100%" stop-color="#ef5da8"/>
    </linearGradient>
    <linearGradient id="heart" x1="0%" y1="0%" x2="100%" y2="100%">
      <stop offset="0%" stop-color="#ff7dbc"/>
      <stop offset="100%" stop-color="#f03f9b"/>
    </linearGradient>
    <filter id="softShadow" x="-20%" y="-20%" width="140%" height="140%">
      <feDropShadow dx="0" dy="8" stdDeviation="10" flood-color="#df82b8" flood-opacity="0.35"/>
    </filter>
  </defs>

  <rect x="16" y="16" width="480" height="480" rx="96" fill="url(#bg)"/>

  <g opacity="0.9">
    <path d="M100 164l14-20 14 20 23 7-23 7-14 20-14-20-23-7z" fill="#ffd45e"/>
    <path d="M420 146l10-14 10 14 16 5-16 5-10 14-10-14-16-5z" fill="#fff6d8"/>
    <path d="M360 108l8-12 8 12 13 4-13 4-8 12-8-12-13-4z" fill="#ffd45e"/>
    <path d="M170 112l9-13 9 13 14 4-14 4-9 13-9-13-14-4z" fill="#ff8bbb"/>
    <path d="M406 278l8-11 8 11 13 4-13 4-8 11-8-11-13-4z" fill="#fff6d8"/>
  </g>

  <g filter="url(#softShadow)" transform="translate(8 6)">
    <rect x="155" y="152" width="224" height="264" rx="38" fill="#f58abe"/>
    <rect x="143" y="140" width="224" height="264" rx="38" fill="#ffb1d5"/>
    <rect x="131" y="128" width="224" height="264" rx="38" fill="url(#bookBody)" stroke="#ffd4ea" stroke-width="3"/>

    <path d="M131 128c-18 6-29 18-34 36v202c0 22 15 33 34 38v-276z" fill="url(#bookEdge)"/>
    <path d="M131 146c-8 5-13 12-15 22" stroke="#ffd2e9" stroke-width="4" stroke-linecap="round"/>

    <circle cx="210" cy="200" r="8" fill="#2a2230"/>
    <circle cx="290" cy="200" r="8" fill="#2a2230"/>
    <path d="M218 244c8 11 17 16 29 16 12 0 21-5 29-16" fill="none" stroke="#2a2230" stroke-width="5" stroke-linecap="round"/>
    <ellipse cx="184" cy="220" rx="12" ry="7" fill="#ffc89f"/>
    <ellipse cx="316" cy="220" rx="12" ry="7" fill="#ffc89f"/>

    <path d="M250 332c-12-18-38-16-44 5-4 15 6 31 22 39 8 4 16 8 22 13 6-5 14-9 22-13 16-8 26-24 22-39-6-21-32-23-44-5z" fill="url(#heart)"/>

    <path d="M116 358l30 0 0 44-16 16-14-16z" fill="#ffd45e"/>
  </g>
</svg>